<?xml version="1.0" encoding="UTF-8" standalone="no"?>
<!-- Created with Inkscape (http://www.inkscape.org/) -->

<svg
   xmlns:dc="http://purl.org/dc/elements/1.1/"
   xmlns:cc="http://creativecommons.org/ns#"
   xmlns:rdf="http://www.w3.org/1999/02/22-rdf-syntax-ns#"
   xmlns:svg="http://www.w3.org/2000/svg"
   xmlns="http://www.w3.org/2000/svg"
   xmlns:sodipodi="http://sodipodi.sourceforge.net/DTD/sodipodi-0.dtd"
   xmlns:inkscape="http://www.inkscape.org/namespaces/inkscape"
   width="180.17413"
   height="28.3832"
   viewBox="0 0 47.671073 7.5097214"
   version="1.1"
   id="svg5251"
   inkscape:version="0.92.0 r15299"
   sodipodi:docname="atlanta bas light.svg">
  <defs
     id="defs5245">
    <clipPath
       id="clipPath1526"
       clipPathUnits="userSpaceOnUse">
      <path
         inkscape:connector-curvature="0"
         id="path1524"
         d="M 403.554,291.888 H 546.092 V 309.83 H 403.554 Z" />
    </clipPath>
    <clipPath
       id="clipPath1666"
       clipPathUnits="userSpaceOnUse">
      <path
         inkscape:connector-curvature="0"
         id="path1664"
         d="M 243.938,63.577 H 350.613 V 81.351 H 243.938 Z" />
    </clipPath>
    <clipPath
       id="clipPath1498"
       clipPathUnits="userSpaceOnUse">
      <path
         inkscape:connector-curvature="0"
         id="path1496"
         d="m 230.781,106.517 h 132.988 v 20.53 H 230.781 Z" />
    </clipPath>
    <clipPath
       id="clipPath1470"
       clipPathUnits="userSpaceOnUse">
      <path
         inkscape:connector-curvature="0"
         id="path1468"
         d="m 230.085,152.205 h 134.381 v 20.537 H 230.085 Z" />
    </clipPath>
  </defs>
  <sodipodi:namedview
     id="base"
     pagecolor="#ffffff"
     bordercolor="#666666"
     borderopacity="1.0"
     inkscape:pageopacity="0.0"
     inkscape:pageshadow="2"
     inkscape:zoom="4.4760925"
     inkscape:cx="89.587067"
     inkscape:cy="13.691602"
     inkscape:document-units="mm"
     inkscape:current-layer="layer1"
     showgrid="false"
     fit-margin-top="0"
     fit-margin-left="0"
     fit-margin-right="0"
     fit-margin-bottom="0"
     units="px"
     inkscape:window-width="1280"
     inkscape:window-height="744"
     inkscape:window-x="-4"
     inkscape:window-y="-4"
     inkscape:window-maximized="1" />
  <metadata
     id="metadata5248">
    <rdf:RDF>
      <cc:Work
         rdf:about="">
        <dc:format>image/svg+xml</dc:format>
        <dc:type
           rdf:resource="http://purl.org/dc/dcmitype/StillImage" />
        <dc:title></dc:title>
      </cc:Work>
    </rdf:RDF>
  </metadata>
  <g
     inkscape:label="Layer 1"
     inkscape:groupmode="layer"
     id="layer1"
     transform="translate(-20.095458,-141.36101)">
    <g
       id="g5515"
       transform="translate(0.13229158,-0.13228897)">
      <g
         id="g1448"
         transform="matrix(0.35277777,0,0,-0.35277777,20.095458,147.8505)">
        <path
           d="M 0,0 H 20.375 L 20.373,0.005 6.773,3.396 Z"
           style="fill:#0a7abc;fill-opacity:1;fill-rule:nonzero;stroke:none"
           id="path1450"
           inkscape:connector-curvature="0" />
      </g>
      <g
         id="g1452"
         transform="matrix(0.35277777,0,0,-0.35277777,20.095458,147.8505)">
        <path
           d="M 0,0 6.773,3.396 2.566,4.445 Z"
           style="fill:#a6d71c;fill-opacity:1;fill-rule:nonzero;stroke:none"
           id="path1454"
           inkscape:connector-curvature="0" />
      </g>
      <g
         id="g1456"
         transform="matrix(0.35277777,0,0,-0.35277777,22.484785,146.6526)">
        <path
           d="M 0,0 13.599,-3.391 9.029,4.527 Z"
           style="fill:#40c1f3;fill-opacity:1;fill-rule:nonzero;stroke:none"
           id="path1458"
           inkscape:connector-curvature="0" />
      </g>
      <g
         id="g1460"
         transform="matrix(0.35277777,0,0,-0.35277777,23.689558,141.62559)">
        <path
           d="M 0,0 -7.081,-12.266 5.07,-8.78 Z"
           style="fill:#ed1c24;fill-opacity:1;fill-rule:nonzero;stroke:none"
           id="path1462"
           inkscape:connector-curvature="0" />
      </g>
      <g
         transform="matrix(0.35277777,0,0,-0.35277777,-61.073414,202.56527)"
         id="g1464">
        <g
           id="g1466"
           clip-path="url(#clipPath1470)">
          <g
             id="g1472"
             transform="translate(364.4656,155.0809)">
            <path
               d="m 0,0 c -0.065,-0.016 -0.598,-0.146 -1.212,-0.146 -1.486,0 -2.261,0.744 -2.261,2.294 v 4.297 h -1.115 v 1.341 h 1.115 v 2.1 l 1.566,0.453 V 7.786 h 1.633 L -0.049,6.445 H -1.907 V 2.31 c 0,-0.727 0.405,-0.969 0.987,-0.969 0.322,0 0.63,0.049 0.71,0.08 z M -5.613,5.589 V 0.016 H -7.18 v 5.04 c 0,0.888 -0.307,1.486 -1.26,1.486 -0.808,0 -1.615,-0.775 -1.955,-1.179 V 0.016 h -1.567 v 11.227 l 1.567,0.453 v -4.83 c 0.34,0.29 1.26,1.066 2.472,1.066 1.551,0 2.31,-0.938 2.31,-2.343 m -11.659,1.164 c -0.888,0 -1.485,-0.695 -1.485,-1.535 0,-0.84 0.5,-1.535 1.485,-1.535 0.89,0 1.487,0.678 1.487,1.535 0,0.856 -0.581,1.535 -1.487,1.535 m -0.774,-6.155 c -0.582,-0.259 -1.244,-0.76 -1.244,-1.309 0,-0.565 0.662,-0.985 2.245,-0.985 1.179,0 2.181,0.371 2.181,1.082 0,0.614 -0.856,0.776 -1.567,0.904 -0.614,0.114 -1.615,0.308 -1.615,0.308 m 4.943,5.863 -1.405,-0.144 c 0.063,-0.097 0.242,-0.452 0.242,-1.099 0,-1.195 -0.888,-2.697 -2.973,-2.697 -0.323,0 -0.517,0.031 -0.582,0.047 -0.081,-0.031 -0.306,-0.209 -0.306,-0.387 0,-0.193 0.274,-0.242 0.549,-0.291 0.29,-0.08 1.179,-0.242 1.696,-0.323 1.486,-0.226 2.52,-0.807 2.52,-2.019 0,-1.551 -1.632,-2.424 -3.667,-2.424 -2.859,0 -3.763,1.034 -3.763,2.053 0,1.147 1.244,1.792 1.55,1.954 -0.162,0.129 -0.42,0.371 -0.42,0.792 0,0.533 0.517,0.888 0.71,1.017 -0.549,0.291 -1.34,1.034 -1.34,2.278 0,1.357 1.083,2.714 2.988,2.714 1.147,0 1.81,-0.485 1.988,-0.63 l 1.986,0.614 z m -8.821,1.325 h -1.584 v -7.77 h 1.584 v 1.698 z m 0.193,2.343 c 0,-0.533 -0.452,-0.969 -0.985,-0.969 -0.55,0 -0.985,0.436 -0.985,0.969 0,0.549 0.435,0.985 0.985,0.985 0.533,0 0.985,-0.436 0.985,-0.985 m -3.132,-8.595 0.227,-1.518 h -5.849 v 11.147 h 1.664 V 1.534 Z m -11.299,4.427 c -0.227,0.129 -1.099,0.63 -2.359,0.63 -0.792,0 -1.244,-0.274 -1.244,-0.775 0,-0.486 0.324,-0.679 0.905,-0.873 0.307,-0.097 0.824,-0.242 1.292,-0.371 1.244,-0.355 2.197,-0.953 2.197,-2.359 0,-1.567 -1.389,-2.359 -3.15,-2.359 -1.518,0 -2.503,0.517 -2.892,0.712 l 0.227,1.437 c 0.355,-0.193 1.228,-0.807 2.681,-0.807 0.872,0 1.535,0.338 1.535,0.952 0,0.695 -0.759,0.922 -1.243,1.05 -0.308,0.081 -0.776,0.211 -1.196,0.34 -0.565,0.177 -1.939,0.614 -1.939,2.213 0,1.196 1.115,2.181 2.924,2.181 1.196,0 2.213,-0.387 2.504,-0.533 z m -8.034,-2.1 c -1.777,-0.178 -3.247,-0.549 -3.247,-1.632 0,-0.695 0.485,-1.033 1.196,-1.033 1.066,0 1.874,0.839 2.051,1.017 z m 0.194,-3.845 -0.064,0.953 c -0.146,-0.226 -0.921,-1.115 -2.31,-1.115 -1.454,0 -2.617,0.76 -2.617,2.424 0,2.326 3.15,2.649 4.797,2.827 v 0.243 c 0,0.564 -0.225,1.243 -1.518,1.243 -1.163,0 -2.359,-0.614 -2.552,-0.71 l -0.21,1.388 c 0.225,0.114 1.486,0.663 2.875,0.663 2.31,0 2.988,-1.05 2.988,-2.746 v -5.17 z m -6.627,10.372 -0.259,-1.714 c -0.274,0.211 -1.518,1.18 -3.312,1.18 -2.31,0 -3.521,-1.744 -3.521,-4.265 0,-2.551 1.244,-4.264 3.489,-4.264 1.163,0 2.278,0.42 2.456,0.533 v 2.795 h -2.521 l -0.241,1.518 h 4.41 V 0.904 c -0.146,-0.128 -1.535,-1.05 -3.958,-1.05 -2.988,0 -5.331,1.891 -5.331,5.735 0,3.603 2.132,5.735 5.266,5.735 2.213,0 3.183,-0.694 3.522,-0.936 M -65.644,3.861 c -1.778,-0.178 -3.247,-0.549 -3.247,-1.632 0,-0.695 0.484,-1.033 1.195,-1.033 1.066,0 1.875,0.839 2.052,1.017 z m 0.194,-3.845 -0.065,0.953 c -0.146,-0.226 -0.92,-1.115 -2.31,-1.115 -1.454,0 -2.617,0.76 -2.617,2.424 0,2.326 3.15,2.649 4.798,2.827 v 0.243 c 0,0.564 -0.226,1.243 -1.519,1.243 -1.163,0 -2.358,-0.614 -2.552,-0.71 l -0.21,1.388 c 0.227,0.114 1.486,0.663 2.876,0.663 2.31,0 2.987,-1.05 2.987,-2.746 V 0.016 Z M -71.133,0 c -0.064,-0.016 -0.597,-0.146 -1.211,-0.146 -1.486,0 -2.262,0.744 -2.262,2.294 v 4.297 h -1.115 v 1.341 h 1.115 v 2.1 l 1.567,0.453 V 7.786 h 1.631 l 0.227,-1.341 h -1.858 V 2.31 c 0,-0.727 0.403,-0.969 0.986,-0.969 0.323,0 0.629,0.049 0.71,0.08 z m -5.612,5.589 V 0.016 h -1.584 v 5.04 c 0,0.888 -0.291,1.486 -1.243,1.486 -0.809,0 -1.633,-0.775 -1.956,-1.179 V 0.016 h -1.583 v 7.77 h 1.357 l 0.129,-1.001 c 0.34,0.306 1.325,1.147 2.568,1.147 1.552,0 2.312,-0.938 2.312,-2.343 m -9.623,-1.728 c -1.777,-0.178 -3.248,-0.549 -3.248,-1.632 0,-0.695 0.484,-1.033 1.195,-1.033 1.067,0 1.875,0.839 2.053,1.017 z m 0.193,-3.845 -0.065,0.953 c -0.144,-0.226 -0.92,-1.115 -2.31,-1.115 -1.453,0 -2.617,0.76 -2.617,2.424 0,2.326 3.15,2.649 4.799,2.827 v 0.243 c 0,0.564 -0.227,1.243 -1.519,1.243 -1.164,0 -2.358,-0.614 -2.552,-0.71 l -0.211,1.388 c 0.227,0.114 1.487,0.663 2.876,0.663 2.31,0 2.989,-1.05 2.989,-2.746 v -5.17 z m -6.299,0 h -1.568 v 11.227 l 1.568,0.453 V 1.714 Z M -95.57,0 c -0.065,-0.016 -0.598,-0.146 -1.212,-0.146 -1.485,0 -2.26,0.744 -2.26,2.294 v 4.297 h -1.116 v 1.341 h 1.116 v 2.1 l 1.567,0.453 V 7.786 h 1.631 l 0.226,-1.341 h -1.857 V 2.31 c 0,-0.727 0.403,-0.969 0.985,-0.969 0.322,0 0.63,0.049 0.711,0.08 z m -11.162,4.797 h 3.295 l -1.663,4.33 z m 5.105,-4.781 -1.244,3.296 h -4.443 l -1.226,-3.296 h -1.698 l 4.363,11.195 h 1.615 l 4.378,-11.195 z"
               style="fill:#5a5758;fill-opacity:1;fill-rule:nonzero;stroke:none"
               id="path1474"
               inkscape:connector-curvature="0" />
          </g>
        </g>
      </g>
    </g>
  </g>
</svg>
